<svg xmlns="http://www.w3.org/2000/svg" version="1.1" xmlns:xlink="http://www.w3.org/1999/xlink" xmlns:svgjs="http://svgjs.dev/svgjs" viewBox="0 0 800 800" opacity="1"><defs><symbol id="bbburst-shape-1" viewBox="0 0 194 167"><path d="m97 0 96.129 166.5H.871L97 0Z"></path></symbol><symbol id="bbburst-shape-2" viewBox="0 0 126 115"><path d="m63 0 62.77 43.877-23.976 70.996H24.206L.23 43.877 63 0Z"></path></symbol><symbol id="bbburst-shape-3" viewBox="0 0 131 127"><path d="m66 0 66 63.5L66 127 0 63.5 66 0Z"></path></symbol><symbol id="bbburst-shape-4" viewBox="0 0 149 143"><path d="M71.647 2.781c.898-2.764 4.808-2.764 5.706 0l15.445 47.534a3 3 0 0 0 2.853 2.073h49.98c2.906 0 4.115 3.719 1.764 5.427L106.96 87.193a2.999 2.999 0 0 0-1.09 3.354l15.445 47.534c.898 2.764-2.266 5.062-4.617 3.354l-40.435-29.378a3 3 0 0 0-3.526 0l-40.435 29.378c-2.351 1.708-5.515-.59-4.617-3.354L43.13 90.547a3 3 0 0 0-1.09-3.354L1.605 57.815c-2.35-1.708-1.142-5.427 1.764-5.427h49.98a3 3 0 0 0 2.853-2.073L71.647 2.781Z"></path></symbol><symbol id="bbburst-shape-6" viewBox="0 0 133 116"><path d="M59.7487 10.2513c-13.6683-13.66839-35.8291-13.66839-49.4974 0-13.66839 13.6683-13.66839 35.8291 0 49.4974l49.4974-49.4974ZM66.5 66.5 41.7513 91.2487 66.5 115.997l24.7487-24.7483L66.5 66.5Zm56.249-6.7513c13.668-13.6683 13.668-35.8291 0-49.4974-13.669-13.66839-35.8294-13.66839-49.4977 0l49.4977 49.4974Zm-112.4977 0 31.5 31.5 49.4974-49.4974-31.5-31.5-49.4974 49.4974Zm80.9974 31.5 31.5003-31.5-49.4977-49.4974-31.5 31.5 49.4974 49.4974Z"></path></symbol><symbol id="bbburst-shape-8" viewBox="0 0 87 168"><path d="m12 12 31.2546 18.0749c16.4102 9.4902 20.014 31.6325 7.4603 45.8369L36.3296 92.1884c-12.5684 14.2206-8.9394 36.3916 7.5068 45.8636L75 156" stroke-width="14" stroke-linecap="round" stroke-linejoin="round"></path></symbol><symbol id="bbburst-shape-9" viewBox="0 0 182 172"><path d="M13.5809 69.845 91 13.5967l77.419 56.2483-29.571 91.012H43.1524L13.5809 69.845Z" stroke-width="22"></path></symbol><symbol id="bbburst-shape-10" viewBox="0 0 145 145"><circle cx="72.5" cy="72.5" r="61.5" fill="none" stroke-width="22"></circle></symbol></defs><use xlink:href="#bbburst-shape-3" width="26.02255202468704" opacity="0.5260635343206994" transform="matrix(0.762811860587655,0.6466204956129986,-0.6466204956129986,0.762811860587655,835.9184589290437,188.44760607171787)" fill="#00a19d"></use><use xlink:href="#bbburst-shape-3" width="10.605693063116764" opacity="0.7718682898050532" transform="matrix(0.817969890043082,0.575261035515972,-0.575261035515972,0.817969890043082,651.286439864692,-29.690054641321467)" fill="#ff5c58"></use><use xlink:href="#bbburst-shape-4" width="15.107452380200932" opacity="0.5967572011037736" transform="matrix(0.8674094950003538,-0.497594983880697,0.497594983880697,0.8674094950003538,23.15019982423928,116.76744760365915)" fill="#00a19d"></use><use xlink:href="#bbburst-shape-8" width="18.540582739044247" opacity="0.6466378782149239" transform="matrix(0.9362498394213213,0.3513349373227065,-0.3513349373227065,0.9362498394213213,395.24848554479746,103.63026578947796)" fill="none" stroke="#ffbd9b"></use><use xlink:href="#bbburst-shape-1" width="22.193673500672194" opacity="0.37332092515957094" transform="matrix(0.8647122074589256,0.5022676560077425,-0.5022676560077425,0.8647122074589256,759.760205326491,-177.5915168878614)" fill="#ffa6d5"></use><use xlink:href="#bbburst-shape-10" width="27.14869809111276" opacity="0.16616675066747333" transform="matrix(0.9235141639068886,-0.38356432193748236,0.38356432193748236,0.9235141639068886,-90.64958860393585,223.8744507911888)" fill="none" stroke="#2c2891"></use><use xlink:href="#bbburst-shape-2" width="5.672598997856432" opacity="0.9668034339131129" transform="matrix(0.9191073934063211,0.3940071057555158,-0.3940071057555158,0.9191073934063211,554.6682486232003,46.177026778648894)" fill="#00a19d"></use><use xlink:href="#bbburst-shape-3" width="27.552407321557983" opacity="0.0960610477427225" transform="matrix(0.9585289503881282,0.2849951776220666,-0.2849951776220666,0.9585289503881282,792.1916725434276,-271.0789182487329)" fill="#ffa6d5"></use><use xlink:href="#bbburst-shape-4" width="5.862824486145582" opacity="0.9395450830217006" transform="matrix(0.926679600242167,0.37585225620583634,-0.37585225620583634,0.926679600242167,546.3305724236382,55.40533752191999)" fill="#2c2891"></use><use xlink:href="#bbburst-shape-1" width="4.630758415297532" opacity="0.9013231300080565" transform="matrix(0.9295560957752971,0.36868070848226764,-0.36868070848226764,0.9295560957752971,587.7460864112322,40.42943099533659)" fill="#00a19d"></use><use xlink:href="#bbburst-shape-8" width="12.921133974942164" opacity="0.7642419460109324" transform="matrix(0.9078023390131477,0.41939827524950335,-0.41939827524950335,0.9078023390131477,458.4348511564602,10.68661794126757)" fill="none" stroke="#00a19d"></use><use xlink:href="#bbburst-shape-6" width="25.316226735652045" opacity="0.34658725830357495" transform="matrix(0.9799853368542784,-0.19906968516227347,0.19906968516227347,0.9799853368542784,570.0966676449196,-122.68540182210103)" fill="#2c2891"></use><use xlink:href="#bbburst-shape-9" width="20.245441610451902" opacity="0.4092785767293119" transform="matrix(0.9563809987614806,0.2921222093713396,-0.2921222093713396,0.9563809987614806,711.0287674555534,-156.28483140591194)" fill="none" stroke="#ff5c58"></use><use xlink:href="#bbburst-shape-1" width="4.636129190324823" opacity="0.9902532589860117" transform="matrix(0.7558315616985682,0.6547661035364487,-0.6547661035364487,0.7558315616985682,663.4203266885096,99.0773321326053)" fill="#ff5c58"></use><use xlink:href="#bbburst-shape-8" width="6.69999539040685" opacity="0.8714687358558052" transform="matrix(0.9583020311244722,0.2857572696235583,-0.2857572696235583,0.9583020311244722,555.874076633803,52.32759578277103)" fill="none" stroke="#ffbd9b"></use><use xlink:href="#bbburst-shape-3" width="13.228847055436706" opacity="0.6435437398502176" transform="matrix(0.7957409602847251,-0.6056371224794131,0.6056371224794131,0.7957409602847251,4.989753147623446,22.590999623583798)" fill="#2c2891"></use><use xlink:href="#bbburst-shape-4" width="5.979235733929095" opacity="0.9375343676902052" transform="matrix(0.86765929631536,0.4971592758035742,-0.4971592758035742,0.86765929631536,613.2500797707497,73.85382400477232)" fill="#ffa6d5"></use><use xlink:href="#bbburst-shape-9" width="19.72250713342823" opacity="0.5710968970382047" transform="matrix(0.7498547638045231,-0.6616024736952417,0.6616024736952417,0.7498547638045231,314.952879598576,153.9580464090381)" fill="none" stroke="#ffa6d5"></use><use xlink:href="#bbburst-shape-1" width="17.216106902983473" opacity="0.5692484007295324" transform="matrix(0.9823077811885798,-0.18727365809523056,0.18727365809523056,0.9823077811885798,290.3317155105783,-183.33400638333833)" fill="#2c2891"></use><use xlink:href="#bbburst-shape-10" width="12.164481890255528" opacity="0.7318900977699594" transform="matrix(0.7793187829716581,-0.6266276681631394,0.6266276681631394,0.7793187829716581,140.33872781570994,212.6576571945078)" fill="none" stroke="#00a19d"></use><use xlink:href="#bbburst-shape-10" width="27.210848054956138" opacity="0.42610605615707464" transform="matrix(0.9813843043805832,0.19205428168993988,-0.19205428168993988,0.9813843043805832,590.7626334639866,229.53469982649972)" fill="none" stroke="#2c2891"></use><use xlink:href="#bbburst-shape-6" width="24.3160558998006" opacity="0.4975095907027105" transform="matrix(0.93058915630631,0.36606532499693295,-0.36606532499693295,0.93058915630631,391.21004545627045,197.73535560413166)" fill="#ffa6d5"></use><use xlink:href="#bbburst-shape-2" width="36.5969909699697" opacity="0.013059978153522112" transform="matrix(0.9951213911631227,-0.09865808050824477,0.09865808050824477,0.9951213911631227,81.71386109121238,-355.8424930828529)" fill="#ffa6d5"></use><use xlink:href="#bbburst-shape-6" width="6.555782337979122" opacity="0.8447482584841519" transform="matrix(0.7159161007424872,0.6981863194718677,-0.6981863194718677,0.7159161007424872,642.4073065369384,172.08394724714032)" fill="#00a19d"></use><use xlink:href="#bbburst-shape-2" width="11.348804936695638" opacity="0.6555889782361808" transform="matrix(0.9905402580315629,-0.13722243700927686,0.13722243700927686,0.9905402580315629,329.1532385576807,-150.07157663647553)" fill="#00a19d"></use><use xlink:href="#bbburst-shape-4" width="6.022607658288445" opacity="0.8443826808456212" transform="matrix(0.9961007116255653,0.08822342262144574,-0.08822342262144574,0.9961007116255653,460.62284922359567,65.33934081240915)" fill="#ff5c58"></use><use xlink:href="#bbburst-shape-9" width="27.662722485680522" opacity="0.3247247274901188" transform="matrix(0.9928917113202294,0.1190212148803163,-0.1190212148803163,0.9928917113202294,414.15653424516836,-302.22000004418186)" fill="none" stroke="#00a19d"></use><use xlink:href="#bbburst-shape-1" width="8.30372793857875" opacity="0.879593812221249" transform="matrix(0.8742468310184839,-0.4854816973420713,0.4854816973420713,0.8742468310184839,185.41875669854244,103.8504763731886)" fill="#ff5c58"></use><use xlink:href="#bbburst-shape-1" width="7.426744845121545" opacity="0.8556596501007311" transform="matrix(0.7743859223247079,0.6327135554935672,-0.6327135554935672,0.7743859223247079,689.2207149581095,139.83226086194884)" fill="#2c2891"></use><use xlink:href="#bbburst-shape-3" width="11.417852406419366" opacity="0.6671770870354115" transform="matrix(0.9809271689302045,0.19437563956055295,-0.19437563956055295,0.9809271689302045,612.9388014746431,-44.456406238966)" fill="#2c2891"></use><use xlink:href="#bbburst-shape-10" width="34.36274859606333" opacity="0.3238548660302957" transform="matrix(0.9688840350037742,-0.24751510401348298,0.24751510401348298,0.9688840350037742,192.77153592431054,306.8563543633212)" fill="none" stroke="#00a19d"></use><use xlink:href="#bbburst-shape-1" width="10.018367730325766" opacity="0.8407173388248603" transform="matrix(0.8310626926588076,0.5561787490283069,-0.5561787490283069,0.8310626926588076,689.7867708920135,59.55971967190243)" fill="#ffbd9b"></use><use xlink:href="#bbburst-shape-3" width="9.90317223754586" opacity="0.7661334765967815" transform="matrix(0.9993266645326235,-0.03669083746797402,0.03669083746797402,0.9993266645326235,432.38372116174395,-91.01699278709151)" fill="#00a19d"></use><use xlink:href="#bbburst-shape-2" width="10.259773721508406" opacity="0.8190246444953626" transform="matrix(0.8684275276139495,-0.4958161244678545,0.4958161244678545,0.8684275276139495,117.84904551896969,36.94612026709814)" fill="#00a19d"></use><use xlink:href="#bbburst-shape-10" width="10.797262810067798" opacity="0.7981085301298274" transform="matrix(0.714353676387024,-0.6997848419566853,0.6997848419566853,0.714353676387024,195.67597331607948,162.10675532532065)" fill="none" stroke="#ffbd9b"></use><use xlink:href="#bbburst-shape-1" width="11.772839739391816" opacity="0.6661675948392303" transform="matrix(0.9550119841360138,0.2965672101844604,-0.2965672101844604,0.9550119841360138,613.9212208812695,127.54064583369416)" fill="#ffbd9b"></use><use xlink:href="#bbburst-shape-9" width="13.977981878658877" opacity="0.689157217050465" transform="matrix(0.9998776898478744,-0.015639863953305754,0.015639863953305754,0.9998776898478744,253.52070462052723,42.666568685184075)" fill="none" stroke="#00a19d"></use><use xlink:href="#bbburst-shape-4" width="20.29905452862859" opacity="0.5613458179559544" transform="matrix(0.9923484145826471,-0.1234691219508208,0.1234691219508208,0.9923484145826471,441.0005901408655,174.25192022471686)" fill="#ff5c58"></use><use xlink:href="#bbburst-shape-6" width="34.21626714462387" opacity="0.21787420051965445" transform="matrix(0.9963399642159699,0.08547909514097421,-0.08547909514097421,0.9963399642159699,624.0165820003529,-284.74006581530745)" fill="#ffa6d5"></use><use xlink:href="#bbburst-shape-9" width="31.603167131726543" opacity="-0.11450816321249668" transform="matrix(0.7785992422442759,0.6275214896532544,-0.6275214896532544,0.7785992422442759,280.47604109921525,-272.3873008812729)" fill="none" stroke="#00a19d"></use><use xlink:href="#bbburst-shape-8" width="4.470764888712641" opacity="0.8800730733392884" transform="matrix(0.9687842792497671,-0.24790526472527621,0.24790526472527621,0.9687842792497671,329.6396974778622,-31.157621460517248)" fill="none" stroke="#2c2891"></use><use xlink:href="#bbburst-shape-1" width="6.781094135171523" opacity="0.9027074696489874" transform="matrix(0.9006205526290426,-0.4346062818024583,0.4346062818024583,0.9006205526290426,266.77268816602,38.03945099747659)" fill="#ff5c58"></use><use xlink:href="#bbburst-shape-3" width="8.629571165363776" opacity="0.8744097324495713" transform="matrix(0.9999996987582015,0.0007761981101846623,-0.0007761981101846623,0.9999996987582015,352.6393822316271,-36.29513288852036)" fill="#00a19d"></use><use xlink:href="#bbburst-shape-9" width="31.310229577815925" opacity="0.2982325829319642" transform="matrix(0.9746325919068677,0.2238108817571236,-0.2238108817571236,0.9746325919068677,761.6973762815664,137.34689827885876)" fill="none" stroke="#ff5c58"></use><use xlink:href="#bbburst-shape-2" width="8.972671700276965" opacity="0.7835299876014339" transform="matrix(0.9960572444640181,-0.08871282743068937,0.08871282743068937,0.9960572444640181,285.15468058835313,64.27083469394614)" fill="#ffa6d5"></use><use xlink:href="#bbburst-shape-2" width="8.63429656512072" opacity="0.7792228444076759" transform="matrix(0.7635307930607583,-0.6457714208975258,0.6457714208975258,0.7635307930607583,138.07564636779182,196.72809260622768)" fill="#ffa6d5"></use><use xlink:href="#bbburst-shape-6" width="25.939789923249236" opacity="0.3858648434450883" transform="matrix(0.9980463195078668,-0.06247834918434614,0.06247834918434614,0.9980463195078668,110.76064534848771,-113.39428361127489)" fill="#ffa6d5"></use><use xlink:href="#bbburst-shape-2" width="16.710752004106308" opacity="0.6476690787728785" transform="matrix(0.9909447367826788,-0.1342703565300522,0.1342703565300522,0.9909447367826788,291.04275819977596,-146.67928741440653)" fill="#00a19d"></use><use xlink:href="#bbburst-shape-3" width="20.49169936548948" opacity="0.11897962577937027" transform="matrix(0.9898914960792954,0.14182674638408038,-0.14182674638408038,0.9898914960792954,818.5956102553281,-134.28905816079265)" fill="#ffa6d5"></use><use xlink:href="#bbburst-shape-1" width="28.51606532980552" opacity="0.1874370808493776" transform="matrix(0.9630031527113491,0.2694901257337679,-0.2694901257337679,0.9630031527113491,300.93232300021714,-299.5010263361899)" fill="#ff5c58"></use><use xlink:href="#bbburst-shape-3" width="27.981523860212675" opacity="0.17659328176706002" transform="matrix(0.9402881490443386,-0.34037948934501305,0.34037948934501305,0.9402881490443386,266.1895600167069,398.8878647031621)" fill="#00a19d"></use><use xlink:href="#bbburst-shape-9" width="19.5324773171938" opacity="0.45068705636615847" transform="matrix(0.8123156791937182,-0.5832180015534915,0.5832180015534915,0.8123156791937182,-88.43246901421944,85.9061992456729)" fill="none" stroke="#00a19d"></use><use xlink:href="#bbburst-shape-10" width="21.492737571033597" opacity="0.5549145735645749" transform="matrix(0.9594211642572491,0.28197700185523034,-0.28197700185523034,0.9594211642572491,366.2024779275824,-133.57659601240462)" fill="none" stroke="#2c2891"></use><use xlink:href="#bbburst-shape-8" width="26.606345557557844" opacity="0.3073075999399201" transform="matrix(0.9048505050390748,-0.4257294487471253,0.4257294487471253,0.9048505050390748,343.7786760582943,-241.33968244877855)" fill="none" stroke="#00a19d"></use><use xlink:href="#bbburst-shape-6" width="25.014205073281957" opacity="0.33910869340857686" transform="matrix(0.9670188358502909,-0.2547048706066457,0.2547048706066457,0.9670188358502909,138.90759226435887,-242.0869486568805)" fill="#2c2891"></use><use xlink:href="#bbburst-shape-4" width="25.412111814350965" opacity="0.16616307087828597" transform="matrix(0.995092715067017,0.09894689697283343,-0.09894689697283343,0.995092715067017,340.63877555949364,365.8976002047862)" fill="#ffa6d5"></use><use xlink:href="#bbburst-shape-3" width="13.511472954470712" opacity="0.6546535933619553" transform="matrix(0.9018009876678047,-0.43215156906040736,0.43215156906040736,0.9018009876678047,298.0648421711788,177.17353636357342)" fill="#ffbd9b"></use><use xlink:href="#bbburst-shape-1" width="10.468373822212119" opacity="0.8112496545871968" transform="matrix(0.9846214247878358,-0.17470160230739826,0.17470160230739826,0.9846214247878358,378.36934884747336,-58.971621244886705)" fill="#ff5c58"></use><use xlink:href="#bbburst-shape-10" width="5.279319405613663" opacity="0.9632221704576955" transform="matrix(0.8608415891322541,0.5088730277979522,-0.5088730277979522,0.8608415891322541,614.3684871697649,64.44499060122934)" fill="none" stroke="#ffbd9b"></use><use xlink:href="#bbburst-shape-4" width="23.553190130921607" opacity="0.31667707288932545" transform="matrix(0.9986031339115256,0.05283730634769013,-0.05283730634769013,0.9986031339115256,150.12863007406378,165.32232920875123)" fill="#ffa6d5"></use><use xlink:href="#bbburst-shape-10" width="7.424663384971399" opacity="0.9117528599729461" transform="matrix(0.9516539080300452,0.30717232839424546,-0.30717232839424546,0.9516539080300452,483.66112249871384,0.7545456866272389)" fill="none" stroke="#00a19d"></use><use xlink:href="#bbburst-shape-4" width="12.676948266536325" opacity="0.7093563314644165" transform="matrix(0.9530856914729471,0.30270061894474914,-0.30270061894474914,0.9530856914729471,459.0566244271392,135.0624306107236)" fill="#ffa6d5"></use><use xlink:href="#bbburst-shape-1" width="28.207023380898804" opacity="0.3580388979085697" transform="matrix(0.9895351245984227,0.14429219378048136,-0.14429219378048136,0.9895351245984227,157.65526003111543,-37.808374071718845)" fill="#ff5c58"></use><use xlink:href="#bbburst-shape-8" width="12.679127484608573" opacity="0.7066810584899261" transform="matrix(0.7121807040921462,-0.7019961856867991,0.7019961856867991,0.7121807040921462,222.0375305958728,196.37696711476065)" fill="none" stroke="#ffa6d5"></use><use xlink:href="#bbburst-shape-10" width="6.896496840454176" opacity="0.839080295329431" transform="matrix(0.9992286399235821,0.03926990140639846,-0.03926990140639846,0.9992286399235821,426.53188149976387,71.16713981855389)" fill="none" stroke="#ff5c58"></use><use xlink:href="#bbburst-shape-8" width="8.66919342229061" opacity="0.8261148579070706" transform="matrix(0.9136554634786039,-0.4064894759470379,0.4064894759470379,0.9136554634786039,156.70772719453873,51.60863690436139)" fill="none" stroke="#ffa6d5"></use><use xlink:href="#bbburst-shape-1" width="32.3732885582747" opacity="0.31839816301571233" transform="matrix(0.8891296178859962,-0.45765546276418734,0.45765546276418734,0.8891296178859962,403.7185735882532,283.341974383516)" fill="#ffa6d5"></use><use xlink:href="#bbburst-shape-8" width="19.052001280029756" opacity="0.5703530418624745" transform="matrix(0.9281752456101237,-0.3721434043975342,0.3721434043975342,0.9281752456101237,212.0390913610987,223.2331012824356)" fill="none" stroke="#ffbd9b"></use><use xlink:href="#bbburst-shape-6" width="16.084945271735936" opacity="0.6511600747467147" transform="matrix(0.9872755232449411,0.1590189963539825,-0.1590189963539825,0.9872755232449411,601.3953018322492,62.16752918786386)" fill="#ff5c58"></use><use xlink:href="#bbburst-shape-2" width="18.446032636573047" opacity="0.6143862101995339" transform="matrix(0.9636212857550749,-0.26727143064633047,0.26727143064633047,0.9636212857550749,195.0797937924029,-131.86301831523835)" fill="#ffa6d5"></use><use xlink:href="#bbburst-shape-8" width="14.00027878126054" opacity="0.6514911234285995" transform="matrix(0.9869469797748065,-0.16104551876220471,0.16104551876220471,0.9869469797748065,484.3405992643727,25.39945299386511)" fill="none" stroke="#ffbd9b"></use><use xlink:href="#bbburst-shape-6" width="15.29247460456045" opacity="0.6189495379593514" transform="matrix(0.9087005692223513,0.41744853035431173,-0.41744853035431173,0.9087005692223513,391.7572973907345,0.36156292490267106)" fill="#00a19d"></use><use xlink:href="#bbburst-shape-8" width="26.31508210444818" opacity="0.19789578641201233" transform="matrix(0.9584882801734695,0.2851319287103858,-0.2851319287103858,0.9584882801734695,859.7905483901317,56.07989356570852)" fill="none" stroke="#ffa6d5"></use><use xlink:href="#bbburst-shape-8" width="6.430398284534666" opacity="0.8203540518365606" transform="matrix(0.7418122515957949,-0.6706076225203358,0.6706076225203358,0.7418122515957949,190.574173776444,158.24689553112432)" fill="none" stroke="#ffa6d5"></use><use xlink:href="#bbburst-shape-8" width="14.924144130750875" opacity="0.6430983544347744" transform="matrix(0.7539492540041716,-0.656932661987934,0.656932661987934,0.7539492540041716,185.8499841164445,-47.84391595512207)" fill="none" stroke="#2c2891"></use><use xlink:href="#bbburst-shape-6" width="15.096006577379546" opacity="0.7223769744462604" transform="matrix(0.7544633140684562,-0.6563422184537896,0.6563422184537896,0.7544633140684562,18.920268116077523,49.56976567675599)" fill="#00a19d"></use><use xlink:href="#bbburst-shape-2" width="27.245486499598776" opacity="0.028937244111809535" transform="matrix(0.8946815735888938,-0.446704468167155,0.446704468167155,0.8946815735888938,572.3788341090541,-194.68416011968424)" fill="#00a19d"></use><use xlink:href="#bbburst-shape-10" width="6.090074771958071" opacity="0.9529907085222091" transform="matrix(0.937206068865928,-0.3487761237253395,0.3487761237253395,0.937206068865928,266.07222243898553,6.780512758013856)" fill="none" stroke="#00a19d"></use><use xlink:href="#bbburst-shape-4" width="8.291504863009303" opacity="0.8695182278292495" transform="matrix(0.8498725843650031,0.5269882260020148,-0.5269882260020148,0.8498725843650031,607.245748595392,116.58939769570077)" fill="#ff5c58"></use><use xlink:href="#bbburst-shape-1" width="23.63386086765957" opacity="0.235875824816429" transform="matrix(0.9025885341902256,-0.4305042833100967,0.4305042833100967,0.9025885341902256,551.6196509755563,-35.695014120278074)" fill="#ffa6d5"></use><use xlink:href="#bbburst-shape-1" width="32.61793007109506" opacity="-0.10137586452579006" transform="matrix(0.9978920341133115,0.0648959802545395,-0.0648959802545395,0.9978920341133115,750.1584154912881,359.98438724033855)" fill="#00a19d"></use><use xlink:href="#bbburst-shape-1" width="27.496157054778877" opacity="0.16541923380207624" transform="matrix(0.7875007241711924,0.6163137264655457,-0.6163137264655457,0.7875007241711924,740.2841213588678,437.25335152780826)" fill="#ffa6d5"></use><use xlink:href="#bbburst-shape-10" width="6.206486491546487" opacity="0.9175669021032516" transform="matrix(0.9576408539966592,0.28796526658010196,-0.28796526658010196,0.9576408539966592,487.6045866000983,-11.705914833303382)" fill="none" stroke="#ff5c58"></use><use xlink:href="#bbburst-shape-9" width="5.344515563037895" opacity="0.9168771920572708" transform="matrix(0.9986668543486512,-0.05161893088170241,0.05161893088170241,0.9986668543486512,395.7264455080232,-31.558847770807688)" fill="none" stroke="#2c2891"></use><use xlink:href="#bbburst-shape-3" width="5.714625089352864" opacity="0.8970183240399412" transform="matrix(0.9524778534879191,0.3046078439814806,-0.3046078439814806,0.9524778534879191,554.3931251838687,-11.901669869584282)" fill="#00a19d"></use><use xlink:href="#bbburst-shape-8" width="35.45699960489356" opacity="0.033027662381979184" transform="matrix(0.9642023371486007,-0.2651675942440481,0.2651675942440481,0.9642023371486007,-93.60096106204904,-209.27544184206076)" fill="none" stroke="#2c2891"></use><use xlink:href="#bbburst-shape-9" width="31.32587692022314" opacity="0.18457619206546605" transform="matrix(0.9599237376783433,0.28026133847114754,-0.28026133847114754,0.9599237376783433,517.5998507139336,-354.9311428018192)" fill="none" stroke="#ffbd9b"></use><use xlink:href="#bbburst-shape-8" width="26.538459004471864" opacity="0.17680883225740984" transform="matrix(0.9426892108604557,0.33367207214163336,-0.33367207214163336,0.9426892108604557,890.5280480578791,-6.84776320358128)" fill="none" stroke="#2c2891"></use><use xlink:href="#bbburst-shape-6" width="6.101777219527186" opacity="0.934560181288636" transform="matrix(0.8415312006075532,0.5402085138203675,-0.5402085138203675,0.8415312006075532,642.5281579377076,56.69248641655997)" fill="#2c2891"></use><use xlink:href="#bbburst-shape-10" width="28.408226653488494" opacity="0.49749734222134845" transform="matrix(0.8589429349874319,-0.5120713177235924,0.5120713177235924,0.8589429349874319,246.8615855978029,280.6088656470227)" fill="none" stroke="#2c2891"></use><use xlink:href="#bbburst-shape-10" width="7.048135375256321" opacity="0.7958667501032588" transform="matrix(0.969341640812805,0.2457168764784763,-0.2457168764784763,0.969341640812805,475.61795468926647,101.21714867218998)" fill="none" stroke="#00a19d"></use><use xlink:href="#bbburst-shape-1" width="17.416361293578102" opacity="0.49281406138350414" transform="matrix(0.8016172583361195,-0.5978375792284081,0.5978375792284081,0.8016172583361195,-48.942115188261965,189.20318549556902)" fill="#ffa6d5"></use><use xlink:href="#bbburst-shape-6" width="6.940560479164017" opacity="0.7998399972641782" transform="matrix(0.9691967278723941,0.24628784517601462,-0.24628784517601462,0.9691967278723941,510.87200626622973,100.15625741007108)" fill="#ffa6d5"></use><use xlink:href="#bbburst-shape-3" width="9.432037807719169" opacity="0.7943132498117866" transform="matrix(0.9290559971572391,0.3699391222163021,-0.3699391222163021,0.9290559971572391,636.0900676253934,28.96525695211932)" fill="#00a19d"></use><use xlink:href="#bbburst-shape-2" width="8.653012533778698" opacity="0.8379618596084157" transform="matrix(0.9982296546361114,0.05947736212265916,-0.05947736212265916,0.9982296546361114,399.3427817513397,70.53892757994583)" fill="#ffa6d5"></use><use xlink:href="#bbburst-shape-3" width="10.255618597205865" opacity="0.8188651920200443" transform="matrix(0.7862725814549881,-0.6178797841426025,0.6178797841426025,0.7862725814549881,154.80696999726405,7.395574242988289)" fill="#00a19d"></use><use xlink:href="#bbburst-shape-2" width="19.76800016809702" opacity="0.4603339252573402" transform="matrix(0.9740248354385477,0.22644120638459342,-0.22644120638459342,0.9740248354385477,710.1582826043547,-72.07654989324374)" fill="#ff5c58"></use><use xlink:href="#bbburst-shape-2" width="6.76350579679691" opacity="0.8283671584745632" transform="matrix(0.856228531674029,-0.5165972333910978,0.5165972333910978,0.856228531674029,187.50792105763944,136.436566941305)" fill="#00a19d"></use><use xlink:href="#bbburst-shape-3" width="6.315615682852653" opacity="0.9066322127150239" transform="matrix(0.9292240212213972,0.36951687158387825,-0.36951687158387825,0.9292240212213972,541.8152962136949,69.04038287289416)" fill="#ff5c58"></use><use xlink:href="#bbburst-shape-4" width="5.5800766787246445" opacity="0.8835590164362169" transform="matrix(0.9199357180918646,0.3920692216673039,-0.3920692216673039,0.9199357180918646,569.7005891882255,81.00798255676341)" fill="#2c2891"></use><use xlink:href="#bbburst-shape-10" width="17.738651890174193" opacity="0.5745456114347107" transform="matrix(0.9337760829522416,-0.35785783057852527,0.35785783057852527,0.9337760829522416,430.8625833466545,-28.868590346258543)" fill="none" stroke="#ff5c58"></use><use xlink:href="#bbburst-shape-3" width="6.335054482785654" opacity="0.9189908534078743" transform="matrix(0.7465540467900514,0.6653247742429239,-0.6653247742429239,0.7465540467900514,651.5476046913273,64.90265350124525)" fill="#00a19d"></use><use xlink:href="#bbburst-shape-10" width="28.966659591456196" opacity="0.3946068693043556" transform="matrix(0.9790168610480385,-0.20377925749115275,0.20377925749115275,0.9790168610480385,48.09090728725833,103.91239322504748)" fill="none" stroke="#ffa6d5"></use><use xlink:href="#bbburst-shape-10" width="9.703354772541777" opacity="0.7898072786865702" transform="matrix(0.7295286694301065,-0.683950232458136,0.683950232458136,0.7295286694301065,215.7668767447385,93.65286991889377)" fill="none" stroke="#00a19d"></use><use xlink:href="#bbburst-shape-10" width="5.816734188496457" opacity="0.864403166643891" transform="matrix(0.9769742629150379,0.21335718783677848,-0.21335718783677848,0.9769742629150379,429.66352954185936,39.108911945344175)" fill="none" stroke="#00a19d"></use><use xlink:href="#bbburst-shape-3" width="15.113723078509022" opacity="0.6641143461994232" transform="matrix(0.8316040266141964,-0.5553690150873155,0.5553690150873155,0.8316040266141964,52.65912066306228,-21.782676976089192)" fill="#ffa6d5"></use><use xlink:href="#bbburst-shape-8" width="40.790631821322194" opacity="0.01099216616898735" transform="matrix(0.8434413431337096,-0.5372212772152682,0.5372212772152682,0.8434413431337096,-194.88346713604727,331.36715054663756)" fill="none" stroke="#2c2891"></use><use xlink:href="#bbburst-shape-10" width="28.69990085835213" opacity="0.2076959176408727" transform="matrix(0.8796142682885748,0.47568764859217766,-0.47568764859217766,0.8796142682885748,222.7342200357482,7.395438869332736)" fill="none" stroke="#00a19d"></use><use xlink:href="#bbburst-shape-3" width="25.002587793635758" opacity="0.44698460782126836" transform="matrix(0.9174622364620034,0.3978228810238783,-0.3978228810238783,0.9174622364620034,783.4561632269608,107.30385247536748)" fill="#2c2891"></use><use xlink:href="#bbburst-shape-4" width="19.397554717428637" opacity="0.5837798319631808" transform="matrix(0.868721436722153,0.4953009846339884,-0.4953009846339884,0.868721436722153,433.9580967744796,-56.34313142277665)" fill="#ffbd9b"></use><use xlink:href="#bbburst-shape-6" width="17.757550631050034" opacity="0.6044726405541816" transform="matrix(0.9143905532701226,0.40483319539084134,-0.40483319539084134,0.9143905532701226,676.9771044321343,-97.84349872108731)" fill="#ffa6d5"></use><use xlink:href="#bbburst-shape-10" width="25.34341064738521" opacity="0.15478723786311777" transform="matrix(0.8439261152159866,-0.5364594225628377,0.5364594225628377,0.8439261152159866,538.5299000672696,180.16378679258798)" fill="none" stroke="#ffa6d5"></use><use xlink:href="#bbburst-shape-10" width="24.622799253096836" opacity="0.48518790369214126" transform="matrix(0.7712516055161518,0.6365304085342335,-0.6365304085342335,0.7712516055161518,573.8963076844194,304.1089022506811)" fill="none" stroke="#2c2891"></use><use xlink:href="#bbburst-shape-6" width="16.649856976479516" opacity="0.6990931248003895" transform="matrix(0.8271116058952045,0.5620377134974628,-0.5620377134974628,0.8271116058952045,484.68137570616443,40.38638130438443)" fill="#ff5c58"></use><use xlink:href="#bbburst-shape-10" width="26.529505908273123" opacity="0.1977173242571474" transform="matrix(0.9402940745705586,0.34036311981102896,-0.34036311981102896,0.9402940745705586,212.30676828031062,-163.3673350719942)" fill="none" stroke="#00a19d"></use><use xlink:href="#bbburst-shape-10" width="16.536171831218724" opacity="0.6246882624637304" transform="matrix(0.9402671191382285,-0.34043757822469656,0.34043757822469656,0.9402671191382285,196.61652965712935,184.7949297142983)" fill="none" stroke="#00a19d"></use><use xlink:href="#bbburst-shape-4" width="18.81978665133525" opacity="0.5550721438969245" transform="matrix(0.8489610754980207,-0.5284553834423905,0.5284553834423905,0.8489610754980207,83.91383071381347,240.7066984791776)" fill="#00a19d"></use><use xlink:href="#bbburst-shape-2" width="17.13825935592345" opacity="0.6135459302927857" transform="matrix(0.9999937122556677,0.0035461879714524286,-0.0035461879714524286,0.9999937122556677,443.99091737820646,166.1952528782311)" fill="#2c2891"></use><use xlink:href="#bbburst-shape-10" width="12.984459596826241" opacity="0.6583076879397713" transform="matrix(0.9364208536720263,-0.35087887483881586,0.35087887483881586,0.9364208536720263,248.59949494416045,181.39086610163434)" fill="none" stroke="#ffa6d5"></use><use xlink:href="#bbburst-shape-2" width="13.975333730675423" opacity="0.737514712116988" transform="matrix(0.8911251594890693,-0.45375758960658796,0.45375758960658796,0.8911251594890693,109.22503404637507,104.45912762699169)" fill="#2c2891"></use><use xlink:href="#bbburst-shape-9" width="11.442760153225812" opacity="0.7464682499016713" transform="matrix(0.810111740648404,0.5862755049152344,-0.5862755049152344,0.810111740648404,600.2568765660195,182.70400427511277)" fill="none" stroke="#2c2891"></use><use xlink:href="#bbburst-shape-1" width="19.485584565750155" opacity="0.42541061416580683" transform="matrix(0.9798396083555575,-0.19978573997567414,0.19978573997567414,0.9798396083555575,352.65592677096265,-245.07765626746234)" fill="#ffa6d5"></use><use xlink:href="#bbburst-shape-10" width="5.108512777920475" opacity="0.9356211292089455" transform="matrix(0.7314151927820566,0.6819324129029115,-0.6819324129029115,0.7314151927820566,693.6843748970472,87.79299232572049)" fill="none" stroke="#00a19d"></use><use xlink:href="#bbburst-shape-10" width="14.523836956847564" opacity="0.6200402503466169" transform="matrix(0.8211397374799948,0.5707271953668278,-0.5707271953668278,0.8211397374799948,503.03106452177667,189.88661935794346)" fill="none" stroke="#ffa6d5"></use><use xlink:href="#bbburst-shape-8" width="31.95892733123039" opacity="0.1728929495671414" transform="matrix(0.9869708723569389,0.16089902771298184,-0.16089902771298184,0.9869708723569389,78.14413604451468,38.73152253247707)" fill="none" stroke="#2c2891"></use><use xlink:href="#bbburst-shape-9" width="5.69248890727512" opacity="0.9056840477881102" transform="matrix(0.7624211633032502,0.647081115276376,-0.647081115276376,0.7624211633032502,695.279812612501,75.49836223183911)" fill="none" stroke="#ffa6d5"></use><use xlink:href="#bbburst-shape-6" width="9.155493259226814" opacity="0.8395626491547183" transform="matrix(0.996277803766306,-0.08620056683448082,0.08620056683448082,0.996277803766306,307.8398469531093,50.77864506921907)" fill="#ffa6d5"></use><use xlink:href="#bbburst-shape-8" width="5.960402577844974" opacity="0.9564476711407967" transform="matrix(0.9485899586909142,-0.3165076464649309,0.3165076464649309,0.9485899586909142,254.75870732976767,9.926789985754851)" fill="none" stroke="#2c2891"></use><use xlink:href="#bbburst-shape-1" width="28.34720346176366" opacity="0.09850918267844655" transform="matrix(0.9494397937949381,-0.31394916460889877,0.31394916460889877,0.9494397937949381,87.31682688062642,391.3306407722611)" fill="#ffa6d5"></use><use xlink:href="#bbburst-shape-10" width="28.14731155472765" opacity="0.2424652022505236" transform="matrix(0.7546226178302032,0.6561590543908474,-0.6561590543908474,0.7546226178302032,816.5652765911317,387.3676034276338)" fill="none" stroke="#00a19d"></use><use xlink:href="#bbburst-shape-3" width="6.193354367709124" opacity="0.9385801958827058" transform="matrix(0.8724638319356186,-0.4886786899018789,0.4886786899018789,0.8724638319356186,228.19749038517745,60.74949288747837)" fill="#00a19d"></use><use xlink:href="#bbburst-shape-8" width="5.99670421778523" opacity="0.8891812812777403" transform="matrix(0.8951684174954289,-0.4457280609505414,0.4457280609505414,0.8951684174954289,210.84197705218435,-5.923416954777622)" fill="none" stroke="#00a19d"></use><use xlink:href="#bbburst-shape-3" width="6.039733487739243" opacity="0.8728453736161976" transform="matrix(0.7217440523872929,-0.6921600413513977,0.6921600413513977,0.7217440523872929,65.35149292543463,126.97408557849741)" fill="#2c2891"></use><use xlink:href="#bbburst-shape-2" width="16.293312357344146" opacity="0.5549341914251869" transform="matrix(0.9949945067782849,-0.09992963264736611,0.09992963264736611,0.9949945067782849,192.62529481996134,124.21693945263758)" fill="#ff5c58"></use><use xlink:href="#bbburst-shape-3" width="6.430104589638516" opacity="0.897800173435085" transform="matrix(0.9244889489257668,0.38120884474803435,-0.38120884474803435,0.9244889489257668,576.096797001283,66.4804603653991)" fill="#ffa6d5"></use><use xlink:href="#bbburst-shape-8" width="43.50355610550773" opacity="0.029703016143480476" transform="matrix(0.9069411517385945,-0.42125734092484574,0.42125734092484574,0.9069411517385945,-46.95528367600667,398.11160199041336)" fill="none" stroke="#00a19d"></use><use xlink:href="#bbburst-shape-2" width="23.152853750594517" opacity="0.48493610041032276" transform="matrix(0.8494354902256732,0.5276924747853339,-0.5276924747853339,0.8494354902256732,481.13713565867056,-144.10861600845786)" fill="#2c2891"></use><use xlink:href="#bbburst-shape-2" width="17.278582994745044" opacity="0.5712844292206902" transform="matrix(0.9885465268431819,0.150916414833782,-0.150916414833782,0.9885465268431819,592.7089861965519,135.08366741884407)" fill="#ffa6d5"></use><use xlink:href="#bbburst-shape-1" width="29.95592329654297" opacity="0.4050537589118355" transform="matrix(0.999997042413619,0.0024321110202348557,-0.0024321110202348557,0.999997042413619,604.917645269413,154.11343714890035)" fill="#2c2891"></use><use xlink:href="#bbburst-shape-3" width="12.40357977067811" opacity="0.7579357366847479" transform="matrix(0.7146647280449676,0.6994671732743521,-0.6994671732743521,0.7146647280449676,752.8561148813567,186.27309483531957)" fill="#00a19d"></use><use xlink:href="#bbburst-shape-3" width="30.98085355148545" opacity="0.35014524720757434" transform="matrix(0.8775717976873358,-0.4794452418199785,0.4794452418199785,0.8775717976873358,486.90257330865444,50.7210679201051)" fill="#2c2891"></use><use xlink:href="#bbburst-shape-10" width="13.251309776710716" opacity="0.5913919318851324" transform="matrix(0.8290415155913213,-0.5591870576346032,0.5591870576346032,0.8290415155913213,186.17747831158394,255.32056205442535)" fill="none" stroke="#2c2891"></use><use xlink:href="#bbburst-shape-3" width="12.351334766274778" opacity="0.7108939408122219" transform="matrix(0.7697082427451465,-0.6383958184779868,0.6383958184779868,0.7697082427451465,83.49664379529935,-21.168951331365975)" fill="#ff5c58"></use><use xlink:href="#bbburst-shape-10" width="8.985372867409062" opacity="0.8298987034240983" transform="matrix(0.7218163470300136,-0.6920846488401884,0.6920846488401884,0.7218163470300136,84.76856962316549,46.38737507824084)" fill="none" stroke="#2c2891"></use><use xlink:href="#bbburst-shape-4" width="25.416535440950298" opacity="0.1686326549166265" transform="matrix(0.9741742162264181,0.22579768918136442,-0.22579768918136442,0.9741742162264181,418.29646865505947,-361.8480724784177)" fill="#ff5c58"></use><use xlink:href="#bbburst-shape-8" width="6.802385299441136" opacity="0.9433758394962142" transform="matrix(0.9033699944400616,-0.4288620444214702,0.4288620444214702,0.9033699944400616,210.33927553654308,60.67692633279438)" fill="none" stroke="#ff5c58"></use><use xlink:href="#bbburst-shape-10" width="17.027253263239967" opacity="0.49009262112999485" transform="matrix(0.7654627410744869,-0.6434802188309544,0.6434802188309544,0.7654627410744869,336.0690881494525,-13.22294018785044)" fill="none" stroke="#2c2891"></use><use xlink:href="#bbburst-shape-4" width="9.093338110512807" opacity="0.7425591733696415" transform="matrix(0.9132834523321787,-0.40732460728050435,0.40732460728050435,0.9132834523321787,163.52608608766292,129.31022306089062)" fill="#ffa6d5"></use><use xlink:href="#bbburst-shape-4" width="17.578797369953627" opacity="0.48915437247871507" transform="matrix(0.9815243663079654,0.191337184947796,-0.191337184947796,0.9815243663079654,480.7684347260547,235.24451342622)" fill="#00a19d"></use><use xlink:href="#bbburst-shape-6" width="12.001734815282237" opacity="0.8193616820226998" transform="matrix(0.9314968662854585,-0.3637493479037051,0.3637493479037051,0.9314968662854585,191.38625984057052,-27.849021123674902)" fill="#ff5c58"></use><use xlink:href="#bbburst-shape-8" width="12.774340557538432" opacity="0.700119220642041" transform="matrix(0.8280138562193446,-0.5607076367491087,0.5607076367491087,0.8280138562193446,216.68407843150143,199.1469144321373)" fill="none" stroke="#ff5c58"></use><use xlink:href="#bbburst-shape-8" width="4.4316647118074" opacity="0.9513449970200176" transform="matrix(0.9785380797884439,0.20606607290853327,-0.20606607290853327,0.9785380797884439,473.9625787058888,-12.841957431069375)" fill="none" stroke="#2c2891"></use><use xlink:href="#bbburst-shape-2" width="11.788648214638316" opacity="0.6671107708932121" transform="matrix(0.828157468652144,0.5604955014232257,-0.5604955014232257,0.828157468652144,696.5711019833208,-62.902514334833654)" fill="#2c2891"></use><use xlink:href="#bbburst-shape-8" width="32.31930960585411" opacity="0.30924947831408744" transform="matrix(0.9491710575965772,-0.3147607081911516,0.3147607081911516,0.9491710575965772,53.01545827027408,258.4208605104012)" fill="none" stroke="#2c2891"></use><use xlink:href="#bbburst-shape-8" width="30.78716468531502" opacity="0.3398454326725968" transform="matrix(0.888793162555433,0.4583085360264542,-0.4583085360264542,0.888793162555433,860.8262011187816,96.26562271517298)" fill="none" stroke="#ffa6d5"></use><use xlink:href="#bbburst-shape-4" width="4.864099318535966" opacity="0.9132177780613431" transform="matrix(0.9957116510057372,-0.09251112393344404,0.09251112393344404,0.9957116510057372,341.6875474393629,36.1258304065405)" fill="#ff5c58"></use><use xlink:href="#bbburst-shape-1" width="8.761721139790142" opacity="0.7858281899931329" transform="matrix(0.9311561035784338,0.3646207766551834,-0.3646207766551834,0.9311561035784338,629.3668914519866,-14.229908449744016)" fill="#ff5c58"></use><use xlink:href="#bbburst-shape-3" width="18.379033074704296" opacity="0.5968170522386362" transform="matrix(0.7881654748051807,-0.6154633899145618,0.6154633899145618,0.7881654748051807,-34.324253591426015,105.07203705927964)" fill="#00a19d"></use><use xlink:href="#bbburst-shape-4" width="23.94195481527445" opacity="0.4870340849668593" transform="matrix(0.9515022035801814,0.3076419291677564,-0.3076419291677564,0.9515022035801814,740.4888988011897,-14.624192972914386)" fill="#ffbd9b"></use><use xlink:href="#bbburst-shape-2" width="10.021903699656736" opacity="0.8344457961337963" transform="matrix(0.7588014217633419,0.6513220419500103,-0.6513220419500103,0.7588014217633419,726.51651655243,67.16085920516525)" fill="#00a19d"></use><use xlink:href="#bbburst-shape-2" width="11.533947838043177" opacity="0.7646673089750227" transform="matrix(0.9981369725456042,-0.06101298253237348,0.06101298253237348,0.9981369725456042,268.19289597349194,30.81528389928485)" fill="#00a19d"></use><use xlink:href="#bbburst-shape-8" width="5.686465805524155" opacity="0.8592192067313121" transform="matrix(0.9396351532638564,0.3421779927914842,-0.3421779927914842,0.9396351532638564,583.7133716206306,-16.34631891698399)" fill="none" stroke="#ffa6d5"></use><use xlink:href="#bbburst-shape-3" width="24.72179273977288" opacity="0.47214211134960393" transform="matrix(0.8285917562442994,-0.559853285677585,0.559853285677585,0.8285917562442994,-26.270148318271055,-64.3067374008246)" fill="#ffa6d5"></use><use xlink:href="#bbburst-shape-8" width="9.905313333034613" opacity="0.8158042517521082" transform="matrix(0.9769738764934109,-0.2133589572749115,0.2133589572749115,0.9769738764934109,340.13548959549803,-66.87735033406466)" fill="none" stroke="#2c2891"></use><use xlink:href="#bbburst-shape-6" width="11.417940338459303" opacity="0.734867289485289" transform="matrix(0.8990965967980648,-0.4377502822684848,0.4377502822684848,0.8990965967980648,335.8102062500633,15.133426703216742)" fill="#2c2891"></use><use xlink:href="#bbburst-shape-9" width="14.831653168094611" opacity="0.707415239740314" transform="matrix(0.8021649728427238,0.5971024672066195,-0.5971024672066195,0.8021649728427238,648.6497193640039,-56.098201738898524)" fill="none" stroke="#ffa6d5"></use><use xlink:href="#bbburst-shape-1" width="17.462595503476685" opacity="0.5358175207466929" transform="matrix(0.8921757761368435,0.4516883709756328,-0.4516883709756328,0.8921757761368435,590.4956695784855,-168.93166041826788)" fill="#ffa6d5"></use><use xlink:href="#bbburst-shape-6" width="18.14101335554586" opacity="0.4615667099285895" transform="matrix(0.9940874128287336,0.10858275947624003,-0.10858275947624003,0.9940874128287336,198.84769367998896,-55.314736544116556)" fill="#00a19d"></use><use xlink:href="#bbburst-shape-6" width="7.967717005706781" opacity="0.784533562537505" transform="matrix(0.9515881216366012,-0.307376067318399,0.307376067318399,0.9515881216366012,231.91993684323464,108.29534470833312)" fill="#2c2891"></use><use xlink:href="#bbburst-shape-9" width="16.37255302501582" opacity="0.5392257341230711" transform="matrix(0.9814828460133944,-0.19155005346239806,0.19155005346239806,0.9814828460133944,477.36461283213345,-120.50202999647075)" fill="none" stroke="#ff5c58"></use><use xlink:href="#bbburst-shape-4" width="8.604315502129888" opacity="0.8455634364982274" transform="matrix(0.9205702253059126,0.39057708622014864,-0.39057708622014864,0.9205702253059126,490.4521524632795,-1.6603343226139486)" fill="#00a19d"></use><use xlink:href="#bbburst-shape-8" width="32.46548654298064" opacity="0.2632764033607937" transform="matrix(0.9781890185090443,-0.20771673998094767,0.20771673998094767,0.9781890185090443,199.75474955816998,-303.58025177341216)" fill="none" stroke="#ffbd9b"></use><use xlink:href="#bbburst-shape-8" width="15.209366463340881" opacity="0.726081409575519" transform="matrix(0.9525295627585298,-0.3044461070058936,0.3044461070058936,0.9525295627585298,249.43312126686942,-100.06250396336645)" fill="none" stroke="#ffbd9b"></use><use xlink:href="#bbburst-shape-6" width="15.37094788632745" opacity="0.7073933998943869" transform="matrix(0.7595244082862018,-0.6504788030501032,0.6504788030501032,0.7595244082862018,36.009769650279736,189.1742983662303)" fill="#2c2891"></use><use xlink:href="#bbburst-shape-2" width="6.369646248472163" opacity="0.8562426053404126" transform="matrix(0.9833024497219081,0.1819788239628297,-0.1819788239628297,0.9833024497219081,527.8927594321991,34.276487303870226)" fill="#ffbd9b"></use><use xlink:href="#bbburst-shape-4" width="28.740505409188998" opacity="0.05885087238153519" transform="matrix(0.8499449779259544,-0.5268714591799872,0.5268714591799872,0.8499449779259544,388.91055238356057,434.33384574512223)" fill="#ffa6d5"></use><use xlink:href="#bbburst-shape-4" width="14.35472254439479" opacity="0.6253124704761406" transform="matrix(0.9980045035727396,-0.06314278144435545,0.06314278144435545,0.9980045035727396,508.76193646188403,93.44343089695565)" fill="#ffa6d5"></use><use xlink:href="#bbburst-shape-2" width="29.76920079854971" opacity="0.013502548096397615" transform="matrix(0.9967479502068073,-0.08058240352910853,0.08058240352910853,0.9967479502068073,610.1405395874995,-359.30267763612375)" fill="#ffa6d5"></use><use xlink:href="#bbburst-shape-3" width="34.49636096975613" opacity="0.20169558102877105" transform="matrix(0.9610899158459089,-0.2762357211862792,0.2762357211862792,0.9610899158459089,586.6576790762334,-154.40884647181207)" fill="#ffa6d5"></use><use xlink:href="#bbburst-shape-6" width="8.896914133421125" opacity="0.804082554817984" transform="matrix(0.7940279706003986,-0.607881223516743,0.607881223516743,0.7940279706003986,100.17838492362654,155.443205998635)" fill="#ff5c58"></use><use xlink:href="#bbburst-shape-8" width="21.0864507760338" opacity="0.4589752966501027" transform="matrix(0.9463478199034503,-0.32314981628338696,0.32314981628338696,0.9463478199034503,239.46631849437202,-217.6599910134589)" fill="none" stroke="#2c2891"></use><use xlink:href="#bbburst-shape-6" width="10.568479972174242" opacity="0.7663337812817116" transform="matrix(0.7474556755481415,0.6643116836928818,-0.6643116836928818,0.7474556755481415,742.7096928541539,30.380453230351748)" fill="#00a19d"></use><use xlink:href="#bbburst-shape-8" width="7.952482461897461" opacity="0.7536362372314233" transform="matrix(0.8534610109958461,-0.5211566968867888,0.5211566968867888,0.8534610109958461,214.86461706559393,168.28316501570197)" fill="none" stroke="#00a19d"></use><use xlink:href="#bbburst-shape-10" width="28.99510537443102" opacity="0.10643159414475956" transform="matrix(0.774373699667892,0.6327285146590609,-0.6327285146590609,0.774373699667892,485.1978512880066,-289.252752267784)" fill="none" stroke="#ffa6d5"></use><use xlink:href="#bbburst-shape-1" width="8.375110581046433" opacity="0.8722094170399735" transform="matrix(0.9963474259455275,0.08539207698446973,-0.08539207698446973,0.9963474259455275,487.1187008824418,7.6332932757804315)" fill="#ff5c58"></use><use xlink:href="#bbburst-shape-10" width="26.680656606697124" opacity="0.32830253743999205" transform="matrix(0.984914202518927,-0.1730433866881542,0.1730433866881542,0.984914202518927,75.05114341328215,-171.9690804878226)" fill="none" stroke="#ff5c58"></use><use xlink:href="#bbburst-shape-4" width="19.464469110455553" opacity="0.5710420356381245" transform="matrix(0.9972727781249051,0.07380383466347584,-0.07380383466347584,0.9972727781249051,517.3753490146473,-166.17170582685384)" fill="#2c2891"></use><use xlink:href="#bbburst-shape-9" width="10.659687094914817" opacity="0.7361126005730538" transform="matrix(0.9407302487497018,0.3391557151034378,-0.3391557151034378,0.9407302487497018,412.116247741262,28.597855074039558)" fill="none" stroke="#ffa6d5"></use><use xlink:href="#bbburst-shape-9" width="23.129165285056263" opacity="0.30043330709543636" transform="matrix(0.8047709961708963,-0.5935854140072035,0.5935854140072035,0.8047709961708963,213.90255583838302,-224.05976383986638)" fill="none" stroke="#ffa6d5"></use><use xlink:href="#bbburst-shape-3" width="9.593834881103229" opacity="0.7918538228773417" transform="matrix(0.9132023197471458,-0.40750647014302926,0.40750647014302926,0.9132023197471458,269.8887831839571,122.60493677968924)" fill="#00a19d"></use><use xlink:href="#bbburst-shape-1" width="30.210111425405387" opacity="0.2624829551285601" transform="matrix(0.8289665229046768,0.5592982244771835,-0.5592982244771835,0.8289665229046768,862.7823021767476,-156.42884878463735)" fill="#00a19d"></use><use xlink:href="#bbburst-shape-2" width="33.990934367694976" opacity="0.25446583221776253" transform="matrix(0.782764248084407,-0.6223183525502465,0.6223183525502465,0.782764248084407,-183.5092062101151,194.06124431587523)" fill="#00a19d"></use><use xlink:href="#bbburst-shape-8" width="10.267543448854967" opacity="0.6901581388631461" transform="matrix(0.9997095586676051,0.0240997574390729,-0.0240997574390729,0.9997095586676051,425.3716283680201,137.8514218326045)" fill="none" stroke="#ffa6d5"></use><use xlink:href="#bbburst-shape-8" width="7.833706922361472" opacity="0.853928477315453" transform="matrix(0.9414858590432452,-0.33705248437239343,0.33705248437239343,0.9414858590432452,195.84814955093458,21.306575670281177)" fill="none" stroke="#00a19d"></use><use xlink:href="#bbburst-shape-6" width="15.171328646506563" opacity="0.6544523581497954" transform="matrix(0.875267714733307,0.48363873660567586,-0.48363873660567586,0.875267714733307,499.81090830171854,175.10129258515565)" fill="#00a19d"></use><use xlink:href="#bbburst-shape-8" width="9.630789587582857" opacity="0.7969167911938406" transform="matrix(0.7746733020639661,0.632361664768913,-0.632361664768913,0.7746733020639661,632.0843332002844,-2.6820302820280517)" fill="none" stroke="#ffa6d5"></use><use xlink:href="#bbburst-shape-6" width="10.58127322460006" opacity="0.7363954740427554" transform="matrix(0.965676237594971,-0.25974873270994225,0.25974873270994225,0.965676237594971,353.4190176367719,115.9700638687973)" fill="#ff5c58"></use><use xlink:href="#bbburst-shape-8" width="16.25787332524634" opacity="0.541126808122077" transform="matrix(0.9865998798953448,-0.16315844137062352,0.16315844137062352,0.9865998798953448,256.7071423272428,-187.57637521375872)" fill="none" stroke="#2c2891"></use><use xlink:href="#bbburst-shape-6" width="10.119437851583536" opacity="0.7183227676518464" transform="matrix(0.9087846922555343,-0.4172653629550552,0.4172653629550552,0.9087846922555343,273.51575504505865,-79.89289783148394)" fill="#ffa6d5"></use><use xlink:href="#bbburst-shape-10" width="22.22932706888403" opacity="0.2726908933138432" transform="matrix(0.8926352058486704,0.4507797569539938,-0.4507797569539938,0.8926352058486704,259.53449682755036,-64.46869594673888)" fill="none" stroke="#ffbd9b"></use><use xlink:href="#bbburst-shape-6" width="8.98317583555037" opacity="0.7915419316830488" transform="matrix(0.8094295701258563,-0.587216970979102,0.587216970979102,0.8094295701258563,67.69290936717559,80.86901059897002)" fill="#00a19d"></use><use xlink:href="#bbburst-shape-10" width="25.616694925987495" opacity="0.4883672977326724" transform="matrix(0.9979134919714504,0.06456518056465042,-0.06456518056465042,0.9979134919714504,642.4504540912468,19.524516264718955)" fill="none" stroke="#00a19d"></use><use xlink:href="#bbburst-shape-3" width="9.989150578799926" opacity="0.8187937140387387" transform="matrix(0.9948543362802279,0.10131559398447594,-0.10131559398447594,0.9948543362802279,501.6787873313229,-46.11893838550105)" fill="#2c2891"></use><use xlink:href="#bbburst-shape-10" width="23.81070089325285" opacity="0.36427778231732366" transform="matrix(0.83494588350683,0.5503320557763277,-0.5503320557763277,0.83494588350683,888.3317358798323,-7.444148911868524)" fill="none" stroke="#ffbd9b"></use><use xlink:href="#bbburst-shape-8" width="36.59354744706369" opacity="-0.1089316033612624" transform="matrix(0.7904767445508811,0.6124920540906967,-0.6124920540906967,0.7904767445508811,985.4717349373808,-278.16668176304984)" fill="none" stroke="#00a19d"></use><use xlink:href="#bbburst-shape-8" width="5.733274974477694" opacity="0.8585909968579563" transform="matrix(0.8315557048680533,-0.5554413647734521,0.5554413647734521,0.8315557048680533,186.0744743914262,6.230872693331378)" fill="none" stroke="#00a19d"></use><use xlink:href="#bbburst-shape-2" width="20.537303337446815" opacity="0.4530050342953361" transform="matrix(0.8975748250930512,0.44086214779585986,-0.44086214779585986,0.8975748250930512,667.1811616886408,-188.44133893284246)" fill="#ffa6d5"></use><use xlink:href="#bbburst-shape-3" width="7.054670332690691" opacity="0.9730305365880438" transform="matrix(0.9403346091329654,-0.3402511173629754,0.3402511173629754,0.9403346091329654,249.17955331468193,29.298568438725454)" fill="#2c2891"></use><use xlink:href="#bbburst-shape-4" width="26.05992413394368" opacity="0.3476699527357988" transform="matrix(0.7857672756433649,0.61852226195021,-0.61852226195021,0.7857672756433649,731.1348570421305,355.7506352430463)" fill="#ff5c58"></use><use xlink:href="#bbburst-shape-1" width="38.29516225391238" opacity="0.22372122894821445" transform="matrix(0.9339247902165383,0.3574695598494996,-0.3574695598494996,0.9339247902165383,801.7051930532664,232.96471296317713)" fill="#ffa6d5"></use><use xlink:href="#bbburst-shape-2" width="14.197725289319893" opacity="0.6714260209384009" transform="matrix(0.9916049407089086,-0.129304452984736,0.129304452984736,0.9916049407089086,193.74061423289731,14.580518729227492)" fill="#00a19d"></use><use xlink:href="#bbburst-shape-1" width="14.218681735481624" opacity="0.6697625877955566" transform="matrix(0.9834904612015284,0.18095997547967604,-0.18095997547967604,0.9834904612015284,612.854681123861,-13.043321482211184)" fill="#00a19d"></use><use xlink:href="#bbburst-shape-3" width="23.781295051995254" opacity="0.40583987760278284" transform="matrix(0.9838228523106304,0.17914406289736662,-0.17914406289736662,0.9838228523106304,328.0752345093442,236.95710315476083)" fill="#00a19d"></use><use xlink:href="#bbburst-shape-6" width="5.96288363880982" opacity="0.8512452082435138" transform="matrix(0.8598470494099505,0.5105517129743099,-0.5105517129743099,0.8598470494099505,634.0583536104859,-4.036321200909526)" fill="#ffbd9b"></use><use xlink:href="#bbburst-shape-8" width="5.025256347978935" opacity="0.9822252183632458" transform="matrix(0.7321487876576916,-0.681144736991612,0.681144736991612,0.7321487876576916,124.61448546382076,100.92764001166745)" fill="none" stroke="#ff5c58"></use><use xlink:href="#bbburst-shape-6" width="36.560965803530664" opacity="0.22324940658646786" transform="matrix(0.9147668384014581,-0.4039822166395454,0.4039822166395454,0.9147668384014581,-18.89931432185307,-212.08773159618278)" fill="#2c2891"></use><use xlink:href="#bbburst-shape-10" width="6.970018180344894" opacity="0.9070727550673247" transform="matrix(0.8131902327921259,-0.5819979770510273,0.5819979770510273,0.8131902327921259,129.2130561773888,99.39936595618809)" fill="none" stroke="#ffa6d5"></use><use xlink:href="#bbburst-shape-1" width="10.190807961843083" opacity="0.7321011348480244" transform="matrix(0.8535668880921419,-0.5209832699355105,0.5209832699355105,0.8535668880921419,307.8059155370364,62.99892297474548)" fill="#ff5c58"></use><use xlink:href="#bbburst-shape-8" width="5.349317006915264" opacity="0.9238812507011086" transform="matrix(0.9983118630473617,-0.058081185412366794,0.058081185412366794,0.9983118630473617,377.4412610388634,-33.25922657780649)" fill="none" stroke="#2c2891"></use><use xlink:href="#bbburst-shape-10" width="9.206326060207921" opacity="0.672408347179674" transform="matrix(0.944768843984838,0.32773744283427997,-0.32773744283427997,0.944768843984838,625.9354550240489,-88.4712490047508)" fill="none" stroke="#2c2891"></use><use xlink:href="#bbburst-shape-10" width="14.98403253679638" opacity="0.6140923816323478" transform="matrix(0.894747457411809,-0.4465724884664336,0.4465724884664336,0.894747457411809,364.62686060551533,-42.12869627292747)" fill="none" stroke="#00a19d"></use><use xlink:href="#bbburst-shape-3" width="9.798386360551218" opacity="0.7317212339975405" transform="matrix(0.9353234546660124,0.3537937748910174,-0.3537937748910174,0.9353234546660124,644.3355375749909,-30.942067784577887)" fill="#00a19d"></use><use xlink:href="#bbburst-shape-6" width="24.614771140034144" opacity="0.39562059270930217" transform="matrix(0.9987737312688917,0.04950791580359287,-0.04950791580359287,0.9987737312688917,226.78841573192108,-203.36094262384213)" fill="#2c2891"></use><use xlink:href="#bbburst-shape-4" width="21.634353872351326" opacity="0.4734333006156769" transform="matrix(0.9364725961365368,-0.35074075424064255,0.35074075424064255,0.9364725961365368,409.19829627643674,204.3514991200957)" fill="#2c2891"></use><use xlink:href="#bbburst-shape-10" width="27.683252319953812" opacity="0.3357447035885882" transform="matrix(0.9572440125600329,0.28928169734355413,-0.28928169734355413,0.9572440125600329,205.28806180698646,45.30473441227463)" fill="none" stroke="#00a19d"></use><use xlink:href="#bbburst-shape-3" width="6.697324321679231" opacity="0.9189443761362346" transform="matrix(0.9173872918982683,0.39799567417694565,-0.39799567417694565,0.9173872918982683,566.7950613929871,66.57483199894358)" fill="#ffa6d5"></use><use xlink:href="#bbburst-shape-3" width="11.98073940315678" opacity="0.7333255442953607" transform="matrix(0.9680356985796006,-0.25081245239322686,0.25081245239322686,0.9680356985796006,370.42966866358233,-78.07795116981373)" fill="#00a19d"></use><use xlink:href="#bbburst-shape-10" width="20.272807781913333" opacity="0.5431439022275187" transform="matrix(0.9630553784006514,-0.2693034313438621,0.2693034313438621,0.9630553784006514,77.88030387765478,-2.2213601770917535)" fill="none" stroke="#ffa6d5"></use><use xlink:href="#bbburst-shape-8" width="37.37664764776372" opacity="0.10522012917583268" transform="matrix(0.9539369231374265,0.3000072443710313,-0.3000072443710313,0.9539369231374265,859.1305243190036,199.12707935816474)" fill="none" stroke="#ffa6d5"></use><use xlink:href="#bbburst-shape-9" width="8.784743206516785" opacity="0.7765243112702775" transform="matrix(0.917779731201026,0.39708987017622654,-0.39708987017622654,0.917779731201026,515.6494112115804,-61.528708742047684)" fill="none" stroke="#ffbd9b"></use><use xlink:href="#bbburst-shape-9" width="12.656690787367989" opacity="0.687784335950079" transform="matrix(0.9030855750896061,-0.42946064320851973,0.42946064320851973,0.9030855750896061,335.99372842816985,-41.360861475803574)" fill="none" stroke="#ffa6d5"></use><use xlink:href="#bbburst-shape-10" width="21.90562809934635" opacity="0.42174436402125093" transform="matrix(0.8827482410437338,-0.46984629713789805,0.46984629713789805,0.8827482410437338,172.60100090461842,310.5508143088581)" fill="none" stroke="#00a19d"></use><use xlink:href="#bbburst-shape-6" width="8.721918683437668" opacity="0.8494208528093119" transform="matrix(0.7395285029842582,0.6731252433788693,-0.6731252433788693,0.7395285029842582,653.9924097179894,34.56948503843233)" fill="#2c2891"></use><use xlink:href="#bbburst-shape-10" width="5.8717940770647505" opacity="0.8735800351195808" transform="matrix(0.9681713368656898,-0.25028835864199317,0.25028835864199317,0.9681713368656898,351.28306751432035,-3.688468288538047)" fill="none" stroke="#2c2891"></use><use xlink:href="#bbburst-shape-8" width="10.686251518306845" opacity="0.742285750522943" transform="matrix(0.9499158980747122,-0.31250565848463124,0.31250565848463124,0.9499158980747122,374.34903592446324,72.14548102754952)" fill="none" stroke="#00a19d"></use><use xlink:href="#bbburst-shape-8" width="38.13302316764269" opacity="0.06760955019078663" transform="matrix(0.9978735966645523,0.06517886988703024,-0.06517886988703024,0.9978735966645523,95.50130504922056,-281.43296587976437)" fill="none" stroke="#ffa6d5"></use><use xlink:href="#bbburst-shape-4" width="7.061251681245586" opacity="0.9082228777845354" transform="matrix(0.8320356174390606,0.554722210942379,-0.554722210942379,0.8320356174390606,577.8089978962631,68.87558553321315)" fill="#ff5c58"></use><use xlink:href="#bbburst-shape-9" width="26.777147660881475" opacity="0.41269429050270445" transform="matrix(0.9905982177088677,0.13680340299866348,-0.13680340299866348,0.9905982177088677,362.6759640653933,-250.51406337046555)" fill="none" stroke="#00a19d"></use><use xlink:href="#bbburst-shape-3" width="8.626944128620877" opacity="0.8812049501022268" transform="matrix(0.9559395818209501,-0.2935634784982407,0.2935634784982407,0.9559395818209501,244.36278015853995,60.105190143311745)" fill="#00a19d"></use><use xlink:href="#bbburst-shape-10" width="13.242655155661112" opacity="0.7458638045435264" transform="matrix(0.9913797418001143,-0.13101987463105944,0.13101987463105944,0.9913797418001143,252.8468065713763,-68.5034622666318)" fill="none" stroke="#ffa6d5"></use><use xlink:href="#bbburst-shape-8" width="5.973186255768562" opacity="0.9659244873291263" transform="matrix(0.8939922673409065,0.44808238744081996,-0.44808238744081996,0.8939922673409065,591.0173795915675,35.946182365883544)" fill="none" stroke="#00a19d"></use><use xlink:href="#bbburst-shape-2" width="34.333073511723754" opacity="0.004898485352641813" transform="matrix(0.9856035003162442,-0.16907317990848555,0.16907317990848555,0.9856035003162442,671.466404661406,280.29601086934446)" fill="#2c2891"></use><use xlink:href="#bbburst-shape-3" width="24.81003929593759" opacity="0.1329514320563625" transform="matrix(0.9996442828114365,-0.026670355123408387,0.026670355123408387,0.9996442828114365,4.91812108736416,-117.46803547664882)" fill="#2c2891"></use><use xlink:href="#bbburst-shape-6" width="8.747496739658173" opacity="0.8304549237026713" transform="matrix(0.8655217498624836,0.5008713412793592,-0.5008713412793592,0.8655217498624836,670.6971436718493,69.6308486165135)" fill="#2c2891"></use><use xlink:href="#bbburst-shape-6" width="9.101002034098025" opacity="0.7659345704926767" transform="matrix(0.983843717895816,-0.1790294354483025,0.1790294354483025,0.983843717895816,325.7407059575967,-98.03627811025711)" fill="#ffa6d5"></use><use xlink:href="#bbburst-shape-8" width="23.47112370551286" opacity="0.4965667864164175" transform="matrix(0.9802428002685079,-0.197798009397856,0.197798009397856,0.9802428002685079,452.3146404262598,-165.53555742595512)" fill="none" stroke="#00a19d"></use><use xlink:href="#bbburst-shape-10" width="11.41897278619252" opacity="0.7784054225180083" transform="matrix(0.9724808836714606,0.2329826836775109,-0.2329826836775109,0.9724808836714606,584.4960081017916,33.3974639058344)" fill="none" stroke="#00a19d"></use><use xlink:href="#bbburst-shape-6" width="36.134738033719316" opacity="0.11859377245449576" transform="matrix(0.9915670770730117,-0.1295944893306966,0.1295944893306966,0.9915670770730117,502.45896323279527,-351.5813854085111)" fill="#ffa6d5"></use><use xlink:href="#bbburst-shape-2" width="20.19668470045732" opacity="0.5309725990590306" transform="matrix(0.9410216573812394,-0.33834633194326974,0.33834633194326974,0.9410216573812394,60.17719477430268,-53.779477274012834)" fill="#ffbd9b"></use><use xlink:href="#bbburst-shape-9" width="16.383011288734874" opacity="0.5909111317844802" transform="matrix(0.9541008269627923,0.2994855789331364,-0.2994855789331364,0.9541008269627923,695.8315443590077,5.829882639321454)" fill="none" stroke="#2c2891"></use><use xlink:href="#bbburst-shape-2" width="23.490705031288552" opacity="0.28254345998170505" transform="matrix(0.9479750498165584,0.31834463231738885,-0.31834463231738885,0.9479750498165584,490.18056343938156,338.88741399357144)" fill="#2c2891"></use><use xlink:href="#bbburst-shape-3" width="17.128265053302577" opacity="0.6260842415150505" transform="matrix(0.9002031412278321,-0.4354702108336962,0.4354702108336962,0.9002031412278321,240.0442587318412,-123.14092620551119)" fill="#ffbd9b"></use><use xlink:href="#bbburst-shape-10" width="6.557453402896917" opacity="0.9393746466705651" transform="matrix(0.9815785298273337,-0.19105912640334718,0.19105912640334718,0.9815785298273337,293.4578059961582,3.450398203396844)" fill="none" stroke="#ffbd9b"></use><use xlink:href="#bbburst-shape-6" width="12.576153242107143" opacity="0.7917936715205025" transform="matrix(0.9993612715799917,0.035735820489000564,-0.035735820489000564,0.9993612715799917,325.66906277965234,-44.671210621389946)" fill="#00a19d"></use><use xlink:href="#bbburst-shape-8" width="6.8265174568062985" opacity="0.8750692596263367" transform="matrix(0.7325711483141554,-0.680690467582498,0.680690467582498,0.7325711483141554,96.18523651255009,61.15610710393236)" fill="none" stroke="#00a19d"></use><use xlink:href="#bbburst-shape-2" width="33.373477783519526" opacity="0.15184816447922744" transform="matrix(0.781309385232633,0.624143929352361,-0.624143929352361,0.781309385232633,361.82405436491837,341.95866515158656)" fill="#ffa6d5"></use><use xlink:href="#bbburst-shape-8" width="6.496959101332717" opacity="0.9098005429243597" transform="matrix(0.8944225186286329,-0.4472229401204872,0.4472229401204872,0.8944225186286329,251.44273030562863,66.9819026189391)" fill="none" stroke="#ffa6d5"></use><use xlink:href="#bbburst-shape-4" width="5.7290805750377665" opacity="0.8919306425692647" transform="matrix(0.7633832908513313,-0.6459457804251002,0.6459457804251002,0.7633832908513313,151.42231029272864,49.36949094040034)" fill="#00a19d"></use><use xlink:href="#bbburst-shape-2" width="44.80126094312069" opacity="-0.10627199651105035" transform="matrix(0.9262867871334144,-0.37681930415260934,0.37681930415260934,0.9262867871334144,-122.71156634364041,390.72977743103087)" fill="#2c2891"></use><use xlink:href="#bbburst-shape-2" width="23.67410767317629" opacity="0.5033339318459216" transform="matrix(0.7478706031189623,0.6638445307377923,-0.6638445307377923,0.7478706031189623,438.1055317873766,139.67721148347448)" fill="#ffa6d5"></use><use xlink:href="#bbburst-shape-8" width="7.994513285676804" opacity="0.8831170657007676" transform="matrix(0.9390633449499678,-0.3437441405629744,0.3437441405629744,0.9390633449499678,207.8945745206524,12.319648950952342)" fill="none" stroke="#ffa6d5"></use><use xlink:href="#bbburst-shape-4" width="32.90118964455872" opacity="0.2364160636032766" transform="matrix(0.9511362854469638,-0.3087713822655069,0.3087713822655069,0.9511362854469638,89.70357947366324,322.60862022762564)" fill="#ffa6d5"></use><use xlink:href="#bbburst-shape-10" width="13.83956895223547" opacity="0.7153146992333554" transform="matrix(0.9356662906363423,-0.3528860900727425,0.3528860900727425,0.9356662906363423,376.7053900503172,59.04127442953313)" fill="none" stroke="#00a19d"></use><use xlink:href="#bbburst-shape-8" width="24.1884627325771" opacity="0.42632577824340434" transform="matrix(0.8676832467262044,0.4971174743968195,-0.4971174743968195,0.8676832467262044,391.28971042615956,213.6754436795747)" fill="none" stroke="#2c2891"></use><use xlink:href="#bbburst-shape-8" width="32.371225614814634" opacity="0.11281786228208524" transform="matrix(0.795553775665074,0.6058829837724815,-0.6058829837724815,0.795553775665074,892.1572709323184,372.6130003370195)" fill="none" stroke="#00a19d"></use><use xlink:href="#bbburst-shape-4" width="25.845562723785168" opacity="0.1564862509771836" transform="matrix(0.9832709252600457,0.1821490805309037,-0.1821490805309037,0.9832709252600457,559.8042534581467,-361.9050115844635)" fill="#00a19d"></use><use xlink:href="#bbburst-shape-3" width="9.301201043846806" opacity="0.8125406003584624" transform="matrix(0.826767709506392,-0.5625434690026666,0.5625434690026666,0.826767709506392,95.45856827888281,109.25433225662096)" fill="#ffa6d5"></use><use xlink:href="#bbburst-shape-6" width="17.38830693619333" opacity="0.5481507651880563" transform="matrix(0.9134452780554632,-0.40696157557953505,0.40696157557953505,0.9134452780554632,289.5171334804736,-156.04250866503497)" fill="#00a19d"></use><use xlink:href="#bbburst-shape-3" width="10.148599598662688" opacity="0.7636776169403178" transform="matrix(0.7781155937128116,0.6281211052185388,-0.6281211052185388,0.7781155937128116,583.3804600591,0.5279669096502744)" fill="#2c2891"></use><use xlink:href="#bbburst-shape-2" width="33.82746889984824" opacity="0.11485849947869076" transform="matrix(0.9632995341223115,0.26842877558066963,-0.26842877558066963,0.9632995341223115,117.03976808875778,147.09528010515197)" fill="#2c2891"></use><use xlink:href="#bbburst-shape-6" width="21.004978389712416" opacity="0.3413764967973161" transform="matrix(0.8483481436525006,0.5294387850935708,-0.5294387850935708,0.8483481436525006,639.660832916011,349.188176815239)" fill="#2c2891"></use><use xlink:href="#bbburst-shape-9" width="12.273564247959687" opacity="0.6810364995082605" transform="matrix(0.994772274660919,-0.10211817451336094,0.10211817451336094,0.994772274660919,261.53442434932134,-107.94796755352263)" fill="none" stroke="#00a19d"></use><use xlink:href="#bbburst-shape-10" width="5.880271992734671" opacity="0.9397266398894009" transform="matrix(0.7573821171911109,0.6529719201919102,-0.6529719201919102,0.7573821171911109,633.9003971789032,105.49919984862476)" fill="none" stroke="#00a19d"></use><use xlink:href="#bbburst-shape-4" width="13.97103923398889" opacity="0.6799171972117222" transform="matrix(0.7817387288403499,0.6236060934845601,-0.6236060934845601,0.7817387288403499,613.1014644556215,223.64807588747811)" fill="#ffbd9b"></use><use xlink:href="#bbburst-shape-3" width="8.351826263077735" opacity="0.8043849218944126" transform="matrix(0.9336542983155379,-0.35817544756295144,0.35817544756295144,0.9336542983155379,304.0283214644289,99.6309986413425)" fill="#2c2891"></use></svg>